<?xml version="1.0" encoding="UTF-8" standalone="no"?>
<svg
   xmlns:dc="http://purl.org/dc/elements/1.1/"
   xmlns:cc="http://creativecommons.org/ns#"
   xmlns:rdf="http://www.w3.org/1999/02/22-rdf-syntax-ns#"
   xmlns:svg="http://www.w3.org/2000/svg"
   xmlns="http://www.w3.org/2000/svg"
   id="svg8"
   version="1.1"
   viewBox="0 0 50.00002 104.21795"
   height="104.21795mm"
   width="50.000019mm">
  <defs
     id="defs2" />
  <metadata
     id="metadata5">
    <rdf:RDF>
      <cc:Work
         rdf:about="">
        <dc:format>image/svg+xml</dc:format>
        <dc:type
           rdf:resource="http://purl.org/dc/dcmitype/StillImage" />
        <dc:title></dc:title>
      </cc:Work>
    </rdf:RDF>
  </metadata>
  <g
     transform="translate(19.373647,-264.51531)"
     id="layer1">
    <path
       id="path4574"
       d="m 1.021798,368.66842 c -4.6084083,-0.43102 -7.9882387,-2.1886 -10.0778939,-5.24071 -1.2738771,-1.8606 -2.1203511,-4.27398 -2.4698481,-7.04177 -0.573976,-4.54551 0.01538,-8.39078 1.8304,-11.9428 0.8140493,-1.5931 1.6766771,-2.85973 3.5261251,-5.17755 2.750947,-3.44761 3.5362048,-4.62066 4.223538,-6.30922 0.5831365,-1.43259 0.8266652,-2.63482 0.8786418,-4.3376 0.0765453,-2.50763 -0.3417887,-4.62704 -1.2972168,-6.57211 -0.8256443,-1.68086 -1.7769565,-2.88661 -3.9667252,-5.02766 -3.3050837,-3.23157 -4.6296969,-4.58407 -5.2458479,-5.35627 -2.401729,-3.01005 -3.525149,-5.98517 -3.648042,-9.66101 -0.169534,-5.07089 1.706989,-8.83231 5.4357448,-10.89577 1.2755178,-0.70585 3.1704792,-1.26948 5.0605248,-1.50519 0.9947043,-0.12404 4.20851512,-0.10312 5.58629625,0.0364 5.07931015,0.51425 10.01205815,1.95695 13.90001515,4.06541 4.607911,2.49889 7.967878,5.9322 9.83255,10.04721 0.91556,2.02046 1.485192,4.15226 1.780752,6.66426 0.130476,1.10897 0.107751,5.36271 -0.03582,6.70356 -0.536692,5.0124 -1.620297,8.64097 -4.464983,14.95155 -1.909671,4.23636 -2.209121,4.91907 -2.746267,6.26118 -1.975372,4.93566 -2.880788,9.46492 -2.886807,14.44097 -0.0045,3.75392 -1.060685,7.38707 -2.989913,10.28536 -2.101022,3.15636 -4.9893521,5.07636 -8.3979764,5.58249 -0.7517991,0.11163 -2.7808737,0.12717 -3.8272516,0.0293 z m 25.067957,-74.4788 c -0.973866,-0.26258 -1.796269,-1.23698 -2.142928,-2.53897 -0.161134,-0.60521 -0.159688,-1.89933 0.0029,-2.59599 0.260678,-1.11692 0.718136,-2.00591 1.411717,-2.74337 1.101399,-1.1711 2.281317,-1.47863 3.466264,-0.90341 0.801245,0.38895 1.476121,1.38696 1.709997,2.52873 0.158165,0.77214 0.09892,2.03981 -0.131443,2.81246 -0.720159,2.41551 -2.590154,3.90603 -4.31651,3.44055 z m -6.171546,-6.45616 c -0.780275,-0.20967 -1.419892,-0.79478 -1.840961,-1.68405 -1.070372,-2.26056 -0.176191,-5.5746 1.859948,-6.8934 0.569433,-0.36882 0.964785,-0.48455 1.656691,-0.48495 0.537328,-3.2e-4 0.633822,0.0198 1.029962,0.21484 0.756061,0.37221 1.38985,1.2395 1.667764,2.28223 0.17576,0.65942 0.195042,1.79957 0.04279,2.53026 -0.444808,2.13481 -1.806672,3.78699 -3.358789,4.07479 -0.455282,0.0844 -0.618232,0.0783 -1.057406,-0.0397 z m -32.69909,-2.75151 c -1.948645,-0.42429 -3.843437,-2.18441 -5.096132,-4.73392 -0.973513,-1.98131 -1.42863,-3.89869 -1.489777,-6.27636 -0.06265,-2.43618 0.301188,-4.26447 1.206808,-6.06416 1.235181,-2.45459 3.391188,-3.73932 5.555916,-3.31067 1.296521,0.25674 2.362698,0.89421 3.519716,2.10448 1.5695083,1.64173 2.6809134,4.01923 3.1836048,6.8103 0.1723611,0.957 0.2400064,3.24032 0.1241328,4.19012 -0.541364,4.4375 -2.9413467,7.39675 -5.9784286,7.37157 -0.346647,-0.003 -0.808276,-0.044 -1.02584,-0.0914 z m 25.566757,-1.7857 c -1.940864,-0.29433 -3.4697299,-1.97958 -3.9863488,-4.39408 -0.046403,-0.21688 -0.08437,-0.80837 -0.08437,-1.31442 0,-0.50606 0.037967,-1.09755 0.08437,-1.31443 0.4848194,-2.26589 1.8832728,-3.89903 3.6577448,-4.27158 2.401362,-0.50417 4.588299,1.27993 5.23606,4.27158 0.0508,0.2346 0.08289,0.79365 0.07923,1.38015 -0.0076,1.21783 -0.178027,1.95881 -0.681503,2.96306 -0.656865,1.3102 -1.638603,2.19909 -2.81391,2.54779 -0.373305,0.11076 -1.16754,0.18102 -1.491271,0.13193 z M 1.0593901,282.74602 c -1.62732843,-0.36858 -3.2266255,-1.82796 -4.1779278,-3.81241 -0.3257846,-0.6796 -0.6986276,-1.83634 -0.8685172,-2.69457 -0.1818026,-0.9184 -0.1631581,-3.18136 0.033672,-4.08709 0.6012867,-2.76682 2.1166413,-4.68941 4.08794428,-5.18652 0.55269573,-0.13938 1.42950932,-0.13985 1.97163342,-0.001 3.0887143,0.7907 5.2873134,4.65493 5.1049072,8.97234 -0.097199,2.30066 -0.8642349,4.26193 -2.1752252,5.56194 -0.5610592,0.55637 -1.0773676,0.88108 -1.7801931,1.11958 -0.6481463,0.21994 -1.5561857,0.27278 -2.196294,0.1278 z"
       style="fill:#01e7fd;fill-opacity:1;stroke:none;stroke-width:0.06572112" />
  </g>
</svg>
